<svg width="132" height="145" viewBox="0 0 132 145" fill="none" xmlns="http://www.w3.org/2000/svg">
<path d="M129 103.5V79L113.5 90L102 95L87 98L58.5 103.5L46.5 105.5L33 109.5L22.5 119.5L58.5 141H71.5L117.5 115L129 103.5Z" fill="#A4CA59" stroke="#A4CA59" stroke-width="2"/>
<path d="M69.5 76.5L44.5 79.5L62 86.5L85.5 94H102L117.5 86.5L129 76.5V57L103.5 59L83 70L69.5 76.5Z" fill="#778D2B" stroke="#778D2B" stroke-width="2"/>
<path d="M99 37.5L74.5 62L85 70.5L104.5 58.5L117.5 57.5L99 37.5Z" fill="#786B5A" stroke="#786B5A" stroke-width="2"/>
<path d="M2 105V74.5H25L38.5 80.5L53.5 87L79.5 93.5L87 98.5L72.5 100.5L57 103.5L40.5 107L30 111.5L20.5 119.5L12 114.5L2 105Z" fill="#8FB03F" stroke="#8FB03F" stroke-width="2"/>
<path d="M46.5 38L11.5 73.5H24L37.5 79.5H46.5L79.5 69.5L46.5 38Z" fill="#C9BBA0" stroke="#C9BBA0" stroke-width="2"/>
<path d="M1.5 42V73.5L10 72L46.5 34L72.5 60L99.5 34L119.5 56.5H129V42L123 31.5L70.5 1.5H60L10 30L1.5 42Z" fill="#8FC9EE" stroke="#8FC9EE" stroke-width="2"/>
<path d="M131 102V70V43L122 30L74 1H58L7.5 30L1 40.5V70V102C1.70797 106.571 6.5 111.5 7.5 112.5C8.5 113.5 25 122.5 25 122.5C25 122.5 53.5 141.5 58 142C62.5 142.5 69 144.5 74 142C79 139.5 122 113.5 122 113.5L131 102Z" stroke="#1D54A4" stroke-width="2"/>
<path d="M1.5 75L9.5 73.5L23 61L46.5 36.5L73 61L99 36.5L119 58H130.5" stroke="#1D54A4" stroke-width="2"/>
<path d="M9.5 73.5L23 75L38 81L49.5 80.5L65 76L81.5 70.5L71.5 59.5" stroke="#1D54A4" stroke-width="2"/>
<path d="M80.5 69.5L85.5 71L104.5 59.5L119 58" stroke="#1D54A4" stroke-width="2"/>
<path d="M130.5 77L119 87L102.5 95.5H85.5L78.5 91.5L61 87L54.5 85.5L51 84C51 84 45 82 44 81" stroke="#1D54A4" stroke-width="2"/>
<path d="M22 120L30 112.5L40 108.5L55.5 105L73 102.5C73 102.5 91.0203 99.9704 91 99.5C90.9797 99.0296 85.5 95.5 85.5 95.5" stroke="#1D54A4" stroke-width="2"/>
</svg>
