<svg width="140" height="27" viewBox="0 0 140 27" fill="none" xmlns="http://www.w3.org/2000/svg">
<path d="M0.736 26V0.799998H3.616L4.876 5.552V26H0.736ZM18.196 26L3.112 6.308L3.616 0.799998L18.7 20.492L18.196 26ZM18.196 26L16.936 21.572V0.799998H21.076V26H18.196ZM35.2167 26.36C33.6567 26.36 32.2407 25.964 30.9687 25.172C29.7207 24.38 28.7247 23.312 27.9807 21.968C27.2607 20.6 26.9007 19.076 26.9007 17.396C26.9007 15.692 27.2607 14.168 27.9807 12.824C28.7247 11.456 29.7207 10.376 30.9687 9.584C32.2407 8.768 33.6567 8.36 35.2167 8.36C36.5367 8.36 37.7007 8.648 38.7087 9.224C39.7407 9.776 40.5567 10.544 41.1567 11.528C41.7567 12.512 42.0567 13.628 42.0567 14.876V19.844C42.0567 21.092 41.7567 22.208 41.1567 23.192C40.5807 24.176 39.7767 24.956 38.7447 25.532C37.7127 26.084 36.5367 26.36 35.2167 26.36ZM35.8647 22.616C37.3287 22.616 38.5047 22.124 39.3927 21.14C40.3047 20.156 40.7607 18.896 40.7607 17.36C40.7607 16.328 40.5567 15.416 40.1487 14.624C39.7407 13.832 39.1647 13.22 38.4207 12.788C37.7007 12.332 36.8487 12.104 35.8647 12.104C34.9047 12.104 34.0527 12.332 33.3087 12.788C32.5887 13.22 32.0127 13.832 31.5807 14.624C31.1727 15.416 30.9687 16.328 30.9687 17.36C30.9687 18.392 31.1727 19.304 31.5807 20.096C32.0127 20.888 32.5887 21.512 33.3087 21.968C34.0527 22.4 34.9047 22.616 35.8647 22.616ZM40.5087 26V21.356L41.1927 17.144L40.5087 12.968V8.72H44.4687V26H40.5087ZM53.4715 26V1.52H57.4315V26H53.4715ZM49.3315 12.32V8.72H61.5715V12.32H49.3315ZM73.521 26.36C72.057 26.36 70.749 26.036 69.597 25.388C68.469 24.74 67.581 23.852 66.933 22.724C66.309 21.572 65.997 20.252 65.997 18.764V8.72H69.957V18.584C69.957 19.424 70.089 20.144 70.353 20.744C70.641 21.32 71.049 21.764 71.577 22.076C72.129 22.388 72.777 22.544 73.521 22.544C74.673 22.544 75.549 22.208 76.149 21.536C76.773 20.84 77.085 19.856 77.085 18.584V8.72H81.045V18.764C81.045 20.276 80.721 21.608 80.073 22.76C79.449 23.888 78.573 24.776 77.445 25.424C76.317 26.048 75.009 26.36 73.521 26.36ZM87.0066 26V8.72H90.9666V26H87.0066ZM90.9666 16.388L89.5986 15.704C89.5986 13.52 90.0786 11.756 91.0386 10.412C92.0226 9.044 93.4986 8.36 95.4666 8.36C96.3306 8.36 97.1106 8.516 97.8066 8.828C98.5026 9.14 99.1506 9.644 99.7506 10.34L97.1586 13.004C96.8466 12.668 96.4986 12.428 96.1146 12.284C95.7306 12.14 95.2866 12.068 94.7826 12.068C93.6786 12.068 92.7666 12.416 92.0466 13.112C91.3266 13.808 90.9666 14.9 90.9666 16.388ZM111.147 26.36C109.419 26.36 107.859 25.976 106.467 25.208C105.099 24.416 104.007 23.336 103.191 21.968C102.399 20.6 102.003 19.064 102.003 17.36C102.003 15.656 102.399 14.132 103.191 12.788C103.983 11.42 105.051 10.34 106.395 9.548C107.763 8.756 109.275 8.36 110.931 8.36C112.539 8.36 113.955 8.732 115.179 9.476C116.427 10.22 117.399 11.24 118.095 12.536C118.815 13.832 119.175 15.308 119.175 16.964C119.175 17.252 119.151 17.552 119.103 17.864C119.079 18.152 119.031 18.476 118.959 18.836H104.775V15.596H116.907L115.431 16.892C115.383 15.836 115.179 14.948 114.819 14.228C114.459 13.508 113.943 12.956 113.271 12.572C112.623 12.188 111.819 11.996 110.859 11.996C109.851 11.996 108.975 12.212 108.231 12.644C107.487 13.076 106.911 13.688 106.503 14.48C106.095 15.248 105.891 16.172 105.891 17.252C105.891 18.332 106.107 19.28 106.539 20.096C106.971 20.912 107.583 21.548 108.375 22.004C109.167 22.436 110.079 22.652 111.111 22.652C111.999 22.652 112.815 22.496 113.559 22.184C114.327 21.872 114.975 21.416 115.503 20.816L118.023 23.372C117.183 24.356 116.163 25.1 114.963 25.604C113.763 26.108 112.491 26.36 111.147 26.36ZM124.042 15.74V12.14H139.918V15.74H124.042ZM130.162 5.624H133.834V22.22H130.162V5.624Z" fill="white"/>
</svg>
